<svg width="1428" height="170" viewBox="0 0 1428 170" fill="none" xmlns="http://www.w3.org/2000/svg">
<path opacity="0.1" fill-rule="evenodd" clip-rule="evenodd" d="M0 0C90.6912 1.14073 147.852 33.4375 291.791 73.6836C435.729 113.93 758.689 101.75 758.689 101.75C758.689 101.75 324.371 237.383 0 92.207" fill="white"/>
<path opacity="0.1" fill-rule="evenodd" clip-rule="evenodd" d="M100.463 129.703C100.463 129.703 366.706 69.8074 546.872 56.9961C727.039 44.1848 979.869 68.6719 979.869 68.6719C979.869 68.6719 907.94 70.6055 617.401 137.738C326.862 204.871 100.463 129.703 100.463 129.703Z" fill="white"/>
<path opacity="0.2" fill-rule="evenodd" clip-rule="evenodd" d="M1045.79 63.3984C1130.7 35.8789 1279.09 21.4297 1439.15 49.2383V147.656C1439.15 147.656 1187.18 69.8867 1045.79 63.3984Z" fill="white"/>
</svg>
