<svg width="177" height="401" viewBox="0 0 177 401" fill="none" xmlns="http://www.w3.org/2000/svg">
<path fill-rule="evenodd" clip-rule="evenodd" d="M-222.25 364.44C-233.71 344.591 -226.909 319.21 -207.06 307.75L75.2643 144.75C95.1135 133.29 120.494 140.091 131.954 159.94V159.94C143.414 179.789 136.613 205.17 116.764 216.63L-165.56 379.63C-185.409 391.09 -210.79 384.289 -222.25 364.44V364.44Z" fill="#FFCA00"/>
<path fill-rule="evenodd" clip-rule="evenodd" d="M-262.602 240.75C-274.062 220.901 -267.261 195.52 -247.412 184.06L34.9121 21.0599C54.7613 9.60003 80.1423 16.4008 91.6022 36.25V36.25C103.062 56.0991 96.2613 81.4801 76.4121 92.94L-205.912 255.94C-225.761 267.4 -251.142 260.599 -262.602 240.75V240.75Z" fill="#FA7564"/>
<path fill-rule="evenodd" clip-rule="evenodd" d="M-198.602 267.75C-210.062 247.901 -203.261 222.52 -183.412 211.06L98.9121 48.0599C118.761 36.6 144.142 43.4008 155.602 63.25V63.25C167.062 83.0991 160.261 108.48 140.412 119.94L-141.912 282.94C-161.761 294.4 -187.142 287.599 -198.602 267.75V267.75Z" fill="#250F8A"/>
</svg>
