<svg width="213" height="594" viewBox="0 0 213 594" fill="none" xmlns="http://www.w3.org/2000/svg">
<path fill-rule="evenodd" clip-rule="evenodd" d="M511.158 372.851C499.698 392.7 474.317 399.501 454.468 388.041L172.143 225.041C152.294 213.581 145.493 188.2 156.953 168.351V168.351C168.413 148.502 193.794 141.701 213.643 153.161L495.968 316.161C515.817 327.621 522.617 353.002 511.158 372.851V372.851Z" fill="#FFCA00"/>
<path fill-rule="evenodd" clip-rule="evenodd" d="M428.297 455.332C416.837 475.181 391.456 481.982 371.607 470.522L89.2824 307.522C69.4333 296.062 62.6325 270.681 74.0924 250.832V250.832C85.5523 230.983 110.933 224.182 130.782 235.642L413.107 398.642C432.956 410.102 439.757 435.483 428.297 455.332V455.332Z" fill="#FA7564"/>
<path fill-rule="evenodd" clip-rule="evenodd" d="M419.679 386.406C408.22 406.255 382.839 413.056 362.989 401.596L80.6651 238.596C60.816 227.136 54.0152 201.755 65.4751 181.906V181.906C76.935 162.057 102.316 155.256 122.165 166.716L404.489 329.716C424.339 341.176 431.139 366.557 419.679 386.406V386.406Z" fill="#250F8A"/>
</svg>
