<svg width="60" height="37" viewBox="0 0 60 37" fill="none" xmlns="http://www.w3.org/2000/svg">
<path fill-rule="evenodd" clip-rule="evenodd" d="M33.3604 3.06239C32.5407 2.59024 31.5263 2.45109 30.3928 2.68757C29.6939 2.83396 28.9488 3.12352 28.1761 3.56511C27.4342 3.99061 26.7239 4.52389 26.0509 5.14244L28.7809 6.71574C29.4539 6.0972 30.1642 5.56391 30.9053 5.13922C31.678 4.69683 32.4223 4.40726 33.122 4.26087C34.2555 4.02439 35.2699 4.16354 36.0896 4.6357L33.3604 3.06239Z" fill="#F0A72E"/>
<mask id="mask0" mask-type="alpha" maskUnits="userSpaceOnUse" x="0" y="0" width="27" height="35">
<path fill-rule="evenodd" clip-rule="evenodd" d="M0 0.609169H26.4224V34.2347H0V0.609169Z" fill="white"/>
</mask>
<g mask="url(#mask0)">
<path fill-rule="evenodd" clip-rule="evenodd" d="M23.6932 1.17282C22.7462 0.626667 21.5729 0.466602 20.2627 0.74008C19.4535 0.908993 18.5916 1.2436 17.6972 1.75597C16.2094 2.60858 14.8124 3.84728 13.601 5.31199C11.3721 8.00736 9.77157 11.4677 9.38401 14.6891C8.71509 14.8387 7.99833 15.1226 7.26292 15.5441C5.98022 16.2785 4.77617 17.345 3.73265 18.6063C1.49644 21.3064 -0.00842646 24.8971 -0.000318348 28.0228C0.00697895 30.3023 0.816979 31.9069 2.12482 32.6606L4.85401 34.2347C3.54536 33.4803 2.73536 31.8756 2.72887 29.5961C2.71995 26.4704 4.22563 22.8798 6.46103 20.1796C7.50536 18.9183 8.7086 17.8518 9.99211 17.1174C10.7267 16.6959 11.4443 16.412 12.1124 16.2624C12.5 13.041 14.1013 9.58067 16.3302 6.8853C17.5416 5.42058 18.9378 4.18188 20.4264 3.32928C21.32 2.81691 22.1818 2.4823 22.991 2.31338C24.3021 2.0391 25.4745 2.19997 26.4224 2.74612L23.6932 1.17282Z" fill="#F0A72E"/>
</g>
<path fill-rule="evenodd" clip-rule="evenodd" d="M20.4262 3.32944C24.6473 0.911568 28.1548 2.44465 28.7808 6.71574C29.4538 6.0972 30.164 5.56392 30.9051 5.13922C34.9283 2.83476 38.2024 4.68557 38.2154 9.27115C38.2283 13.8575 34.9754 19.4462 30.9521 21.7506L10.0389 33.729C6.00997 36.0366 2.74159 34.1826 2.72862 29.5962C2.71564 25.0098 5.96213 19.4252 9.99105 17.1176C10.7273 16.6961 11.444 16.4122 12.1121 16.2625C12.7105 11.2901 16.1986 5.75052 20.4262 3.32944Z" fill="#FFCA00"/>
<path fill-rule="evenodd" clip-rule="evenodd" d="M54.6759 5.31441C53.8562 4.84225 52.8418 4.7031 51.7083 4.93958C51.0086 5.08597 50.2643 5.37554 49.4907 5.81712C48.7497 6.24182 48.0394 6.77591 47.3664 7.39445L50.0956 8.96775C50.7686 8.34921 51.4789 7.81512 52.2207 7.39123C52.9926 6.94804 53.7378 6.65928 54.4367 6.51288C55.571 6.27641 56.5845 6.41556 57.4043 6.88771L54.6759 5.31441Z" fill="#D43E3E"/>
<path fill-rule="evenodd" clip-rule="evenodd" d="M45.0047 3.41977C44.0577 2.87361 42.8844 2.71274 41.5742 2.98622C40.765 3.15514 39.9047 3.48974 39.012 4.00131C37.529 4.8507 36.1361 6.08618 34.9271 7.54848C32.6966 10.2463 31.0928 13.713 30.7044 16.9376C30.0299 17.0905 29.3188 17.3712 28.5777 17.7959C27.2966 18.5294 26.0942 19.596 25.0507 20.8564C22.8144 23.5566 21.3063 27.1488 21.3153 30.2745C21.3217 32.5532 22.1334 34.1563 23.4404 34.9108L26.1696 36.4833C24.8617 35.7296 24.0501 34.1265 24.0436 31.8478C24.0347 28.7221 25.5436 25.1299 27.779 22.4297C28.8234 21.1685 30.0258 20.1027 31.3061 19.3692C32.0488 18.9445 32.759 18.6638 33.4336 18.5109C33.822 15.2855 35.4258 11.8196 37.6563 9.12179C38.8653 7.65948 40.2582 6.42401 41.7412 5.57381C42.6331 5.06305 43.4942 4.72844 44.3026 4.55953C45.6136 4.28605 46.7861 4.44692 47.7339 4.99307L45.0047 3.41977Z" fill="#D43E3E"/>
<path fill-rule="evenodd" clip-rule="evenodd" d="M41.7409 5.57397C45.9619 3.1569 49.4703 4.69643 50.0955 8.96751C50.7684 8.34897 51.4787 7.81569 52.2206 7.39099C56.2438 5.08653 59.5171 6.93734 59.5301 11.5229C59.543 16.1093 56.2909 21.6979 52.2676 24.0024L31.3536 35.9807C27.3311 38.2852 24.0571 36.4344 24.0441 31.848C24.0311 27.2616 27.2833 21.673 31.3065 19.3685C32.0484 18.9446 32.7595 18.6639 33.4333 18.5103C34.0317 13.5386 37.5198 7.99184 41.7409 5.57397Z" fill="#FA7564"/>
</svg>
