<svg width="682" height="508" viewBox="0 0 682 508" fill="none" xmlns="http://www.w3.org/2000/svg">
<path opacity="0.5" fill-rule="evenodd" clip-rule="evenodd" d="M517.75 127.495C515.679 123.908 516.908 119.321 520.495 117.25L611.428 64.75C615.015 62.6789 619.602 63.908 621.673 67.4952V67.4952C623.744 71.0824 622.515 75.6693 618.928 77.7404L527.995 130.24C524.408 132.311 519.821 131.082 517.75 127.495V127.495Z" fill="url(#paint0_linear)"/>
<path opacity="0.5" fill-rule="evenodd" clip-rule="evenodd" d="M573.75 416.495C571.679 412.908 572.908 408.321 576.495 406.25L667.428 353.75C671.015 351.679 675.602 352.908 677.673 356.495V356.495C679.744 360.082 678.515 364.669 674.928 366.74L583.995 419.24C580.408 421.311 575.821 420.082 573.75 416.495V416.495Z" fill="url(#paint1_linear)"/>
<path opacity="0.5" fill-rule="evenodd" clip-rule="evenodd" d="M367.75 66.4952C365.679 62.908 366.908 58.3211 370.495 56.25L461.428 3.75C465.015 1.67893 469.602 2.908 471.673 6.49519V6.49519C473.744 10.0824 472.515 14.6693 468.928 16.7404L377.995 69.2404C374.408 71.3114 369.821 70.0824 367.75 66.4952V66.4952Z" fill="url(#paint2_linear)"/>
<path opacity="0.3" fill-rule="evenodd" clip-rule="evenodd" d="M29.0894 286.815C26.2786 281.947 27.9466 275.721 32.8151 272.911L101.787 233.089C106.656 230.279 112.881 231.947 115.692 236.815V236.815C118.503 241.684 116.835 247.909 111.966 250.72L42.9938 290.541C38.1254 293.352 31.9002 291.684 29.0894 286.815V286.815Z" fill="url(#paint3_linear)"/>
<path opacity="0.5" fill-rule="evenodd" clip-rule="evenodd" d="M5.08938 498.815C2.27859 493.947 3.94664 487.721 8.81507 484.911L77.7875 445.089C82.6559 442.279 88.8811 443.947 91.6919 448.815V448.815C94.5027 453.684 92.8347 459.909 87.9662 462.72L18.9938 502.541C14.1254 505.352 7.90017 503.684 5.08938 498.815V498.815Z" fill="url(#paint4_linear)"/>
<defs>
<linearGradient id="paint0_linear" x1="617.923" y1="61" x2="514" y2="121" gradientUnits="userSpaceOnUse">
<stop stop-color="white" stop-opacity="0.01"/>
<stop offset="1" stop-color="#FFCA00"/>
<stop offset="1" stop-color="white"/>
</linearGradient>
<linearGradient id="paint1_linear" x1="673.923" y1="350" x2="570" y2="410" gradientUnits="userSpaceOnUse">
<stop stop-color="white" stop-opacity="0.01"/>
<stop offset="1" stop-color="#FA7564"/>
<stop offset="1" stop-color="white"/>
</linearGradient>
<linearGradient id="paint2_linear" x1="467.923" y1="0" x2="364" y2="60" gradientUnits="userSpaceOnUse">
<stop stop-color="white" stop-opacity="0.01"/>
<stop offset="1" stop-color="white"/>
<stop offset="1" stop-color="white"/>
</linearGradient>
<linearGradient id="paint3_linear" x1="110.603" y1="228" x2="24" y2="278" gradientUnits="userSpaceOnUse">
<stop stop-color="white" stop-opacity="0.01"/>
<stop offset="1" stop-color="#06CCE2"/>
<stop offset="1" stop-color="white"/>
</linearGradient>
<linearGradient id="paint4_linear" x1="86.6025" y1="440" x2="0" y2="490" gradientUnits="userSpaceOnUse">
<stop stop-color="white" stop-opacity="0.01"/>
<stop offset="1" stop-color="#FA7564"/>
<stop offset="1" stop-color="white"/>
</linearGradient>
</defs>
</svg>
