<svg width="662" height="488" viewBox="0 0 662 488" fill="none" xmlns="http://www.w3.org/2000/svg">
<path opacity="0.5" fill-rule="evenodd" clip-rule="evenodd" d="M497.75 127.495C495.679 123.908 496.908 119.321 500.495 117.25L591.428 64.75C595.015 62.6789 599.602 63.908 601.673 67.4952V67.4952C603.744 71.0824 602.515 75.6693 598.928 77.7404L507.995 130.24C504.408 132.311 499.821 131.082 497.75 127.495V127.495Z" fill="url(#paint0_linear)"/>
<path opacity="0.5" fill-rule="evenodd" clip-rule="evenodd" d="M553.75 416.495C551.679 412.908 552.908 408.321 556.495 406.25L647.428 353.75C651.015 351.679 655.602 352.908 657.673 356.495V356.495C659.744 360.082 658.515 364.669 654.928 366.74L563.995 419.24C560.408 421.311 555.821 420.082 553.75 416.495V416.495Z" fill="url(#paint1_linear)"/>
<path opacity="0.5" fill-rule="evenodd" clip-rule="evenodd" d="M347.75 66.4952C345.679 62.908 346.908 58.3211 350.495 56.25L441.428 3.75C445.015 1.67893 449.602 2.908 451.673 6.49519V6.49519C453.744 10.0824 452.515 14.6693 448.928 16.7404L357.995 69.2404C354.408 71.3114 349.821 70.0824 347.75 66.4952V66.4952Z" fill="url(#paint2_linear)"/>
<path opacity="0.5" fill-rule="evenodd" clip-rule="evenodd" d="M9.08938 286.815C6.27859 281.947 7.94664 275.721 12.8151 272.911L81.7875 233.089C86.6559 230.279 92.8811 231.947 95.6919 236.815V236.815C98.5027 241.684 96.8347 247.909 91.9662 250.72L22.9938 290.541C18.1254 293.352 11.9002 291.684 9.08938 286.815V286.815Z" fill="url(#paint3_linear)"/>
<path opacity="0.5" fill-rule="evenodd" clip-rule="evenodd" d="M5.08938 478.815C2.27859 473.947 3.94664 467.721 8.81507 464.911L77.7875 425.089C82.6559 422.279 88.8811 423.947 91.6919 428.815V428.815C94.5027 433.684 92.8347 439.909 87.9662 442.72L18.9938 482.541C14.1254 485.352 7.90017 483.684 5.08938 478.815V478.815Z" fill="url(#paint4_linear)"/>
<defs>
<linearGradient id="paint0_linear" x1="597.923" y1="61" x2="494" y2="121" gradientUnits="userSpaceOnUse">
<stop stop-color="white" stop-opacity="0.01"/>
<stop offset="1" stop-color="#06CCE2"/>
<stop offset="1" stop-color="white"/>
</linearGradient>
<linearGradient id="paint1_linear" x1="653.923" y1="350" x2="550" y2="410" gradientUnits="userSpaceOnUse">
<stop stop-color="white" stop-opacity="0.01"/>
<stop offset="1" stop-color="#FA7564"/>
<stop offset="1" stop-color="white"/>
</linearGradient>
<linearGradient id="paint2_linear" x1="447.923" y1="0" x2="344" y2="60" gradientUnits="userSpaceOnUse">
<stop stop-color="white" stop-opacity="0.01"/>
<stop offset="1" stop-color="white"/>
<stop offset="1" stop-color="white"/>
</linearGradient>
<linearGradient id="paint3_linear" x1="90.6025" y1="228" x2="4" y2="278" gradientUnits="userSpaceOnUse">
<stop stop-color="white" stop-opacity="0.01"/>
<stop offset="1" stop-color="#06CCE2"/>
<stop offset="1" stop-color="white"/>
</linearGradient>
<linearGradient id="paint4_linear" x1="86.6025" y1="420" x2="0" y2="470" gradientUnits="userSpaceOnUse">
<stop stop-color="white" stop-opacity="0.01"/>
<stop offset="1" stop-color="#FA7564"/>
<stop offset="1" stop-color="white"/>
</linearGradient>
</defs>
</svg>
